<svg xmlns="http://www.w3.org/2000/svg" viewBox="0 0 69.64 248.72">
  <defs>
    <style>
      .cls-1 {
        isolation: isolate;
      }

      .cls-2 {
        fill: #d38a31;
      }

      .cls-3 {
        fill: #e6e4d8;
      }

      .cls-4 {
        fill: #ffd789;
      }

      .cls-5 {
        fill: #fbb668;
      }

      .cls-6 {
        fill: #d0cdc1;
      }

      .cls-7 {
        fill: #fff;
      }

      .cls-8 {
        opacity: 0.63;
        mix-blend-mode: multiply;
      }

      .cls-9 {
        fill: #acaba2;
      }

      .cls-10 {
        fill: #422413;
      }

      .cls-11 {
        fill: #f8f8ee;
      }
    </style>
  </defs>
  <title>Asset 3</title>
  <g class="cls-1">
    <g id="Layer_2" data-name="Layer 2">
      <g id="Objects">
        <g id="_Group_" data-name="&lt;Group&gt;">
          <g id="_Group_2" data-name="&lt;Group&gt;">
            <path id="_Path_" data-name="&lt;Path&gt;" class="cls-2" d="M49.28,5.21,47.44,16.15,45.74,26.3l-.2,1.17-.17,1.05a4.76,4.76,0,0,1-4.79,3.82H29.06a4.76,4.76,0,0,1-4.79-3.82l-.17-1.05-.2-1.18L22.19,16.15,20.36,5.21A4.63,4.63,0,0,1,25.14,0H44.49A4.63,4.63,0,0,1,49.28,5.21Z"/>
            <path id="_Path_2" data-name="&lt;Path&gt;" class="cls-3" d="M69.64,111.46V241a7.72,7.72,0,0,1-7,7.7c-.23,0-.46,0-.68,0H7.73A7.73,7.73,0,0,1,0,241V111.46A38.61,38.61,0,0,1,22.08,76.56V10.87H47.56V76.56A38.63,38.63,0,0,1,69.64,111.46Z"/>
            <path id="_Path_3" data-name="&lt;Path&gt;" class="cls-3" d="M48,10.87H21.68a3.94,3.94,0,0,0-3.75,4.08v.53a3.94,3.94,0,0,0,3.75,4.08H48a3.94,3.94,0,0,0,3.75-4.08v-.53A3.94,3.94,0,0,0,48,10.87Z"/>
            <path id="_Path_4" data-name="&lt;Path&gt;" class="cls-4" d="M51.4,87H18.24a34.31,34.31,0,0,0-13.4,27.3V228.5a6.73,6.73,0,0,0,6.65,6.81H58.14a6.73,6.73,0,0,0,6.65-6.81V114.35A34.31,34.31,0,0,0,51.4,87Z"/>
            <path id="_Path_5" data-name="&lt;Path&gt;" class="cls-5" d="M57.77,93.44a36.27,36.27,0,0,1,2.1,12.17V222.47a6.82,6.82,0,0,1-6.65,7H6.57a6.36,6.36,0,0,1-1.69-.24,6.71,6.71,0,0,0,6.62,6.1H58.14a6.73,6.73,0,0,0,6.65-6.81V114.35A34.52,34.52,0,0,0,57.77,93.44Z"/>
            <circle id="_Path_6" data-name="&lt;Path&gt;" class="cls-5" cx="31.95" cy="149.65" r="2.88"/>
            <circle id="_Path_7" data-name="&lt;Path&gt;" class="cls-5" cx="42.31" cy="191.28" r="2.88"/>
            <circle id="_Path_8" data-name="&lt;Path&gt;" class="cls-5" cx="21.64" cy="114.62" r="2.88"/>
            <circle id="_Path_9" data-name="&lt;Path&gt;" class="cls-5" cx="40.87" cy="126.69" r="1.44"/>
            <circle id="_Path_10" data-name="&lt;Path&gt;" class="cls-5" cx="21.64" cy="174.88" r="1.44"/>
            <rect id="_Rectangle_" data-name="&lt;Rectangle&gt;" class="cls-6" x="9.41" y="238.93" width="27.18" height="4.53" rx="2.26" ry="2.26"/>
            <path id="_Path_11" data-name="&lt;Path&gt;" class="cls-6" d="M54.66,243.46H43.05a2.27,2.27,0,0,1-2.26-2.26h0a2.27,2.27,0,0,1,2.26-2.26H54.66a2.27,2.27,0,0,1,2.26,2.26h0A2.27,2.27,0,0,1,54.66,243.46Z"/>
            <g id="_Group_3" data-name="&lt;Group&gt;">
              <path id="_Path_12" data-name="&lt;Path&gt;" class="cls-7" d="M11.56,133.4a2.16,2.16,0,0,0-2.15,2.15v88.39a2.15,2.15,0,0,0,4.3,0V135.55A2.16,2.16,0,0,0,11.56,133.4Z"/>
              <path id="_Path_13" data-name="&lt;Path&gt;" class="cls-7" d="M11.56,118.23a2.16,2.16,0,0,0-2.15,2.15V126a2.15,2.15,0,1,0,4.3,0v-5.66A2.16,2.16,0,0,0,11.56,118.23Z"/>
            </g>
            <g id="_Group_4" data-name="&lt;Group&gt;" class="cls-8">
              <path id="_Path_14" data-name="&lt;Path&gt;" class="cls-9" d="M62.8,114.33V246.87a8,8,0,0,1-.2,1.81c-.23,0-.46,0-.68,0H58V117.28a40.2,40.2,0,0,0-6-21.13A39.34,39.34,0,0,0,44.2,87a38.62,38.62,0,0,0-8.32-5.47V18.35h4.85V78.62A38.7,38.7,0,0,1,54.08,89.33a39.27,39.27,0,0,1,4.69,7.43A40.2,40.2,0,0,1,62.8,114.33Z"/>
            </g>
            <rect id="_Rectangle_2" data-name="&lt;Rectangle&gt;" class="cls-10" x="2.28" y="137.89" width="65.16" height="11.68"/>
            <g id="_Group_5" data-name="&lt;Group&gt;">
              <rect id="_Path_15" data-name="&lt;Path&gt;" class="cls-11" x="22.08" y="35.7" width="25.48" height="29.6"/>
              <rect id="_Path_16" data-name="&lt;Path&gt;" class="cls-10" x="22.08" y="35.7" width="25.48" height="7.18"/>
              <rect id="_Path_17" data-name="&lt;Path&gt;" class="cls-10" x="22.08" y="59.16" width="25.48" height="7.18"/>
            </g>
          </g>
        </g>
      </g>
    </g>
  </g>
</svg>
